<?xml version="1.0" encoding="utf-8"?>
<!-- Generator: Adobe Illustrator 15.0.2, SVG Export Plug-In . SVG Version: 6.00 Build 0)  -->
<!DOCTYPE svg PUBLIC "-//W3C//DTD SVG 1.1//EN" "http://www.w3.org/Graphics/SVG/1.1/DTD/svg11.dtd">
<svg version="1.1" id="Layer_1" xmlns="http://www.w3.org/2000/svg" xmlns:xlink="http://www.w3.org/1999/xlink" x="0px" y="0px"
	 width="143.15px" height="56.69px" viewBox="0 0 143.15 56.69" enable-background="new 0 0 143.15 56.69" xml:space="preserve">
<g>
	<path fill="#EE402B" d="M135.795,21.464c-2.045,0.553-4.059,0.521-6.449,0c-3.873-1.615-6.547-4.431-7.564-8.898
		c-0.061-2.061-0.01-4.016,0.668-5.338c1.424-2.832,3.102-5.089,5.783-6.229c11.689-4.966,19.297,9.808,12.457,17.351
		C139.707,19.432,137.324,20.753,135.795,21.464z M131.348,15.902c8.041,1.542,8.346-11.738,0-9.788
		C126.041,7.354,126.873,15.044,131.348,15.902z"/>
	<path fill="#231F20" d="M135.795,21.464c0,11.492,0,22.983,0,34.477c-1.725-0.498-4.359-0.085-6.449-0.221
		c0-11.419,0-22.837,0-34.256C131.736,21.986,133.75,22.018,135.795,21.464z"/>
	<path fill="#231F20" d="M121.779,12.565c-8.072,0-16.324,0-26.246,0c-7.438,0-19.57-1.858-23.358,2.669
		c-1.848,2.208-2.03,7.112-0.889,9.787c1.642,3.854,8.973,3.782,15.571,3.782c11.557,0,27.311-1.763,31.809,5.339
		c2.898,4.578,1.918,14.433-0.891,17.796c-3.146,3.771-11.996,4.449-20.02,4.449c-11.865,0-26.944,1.72-30.919-5.34
		c7.015,0,14.917,0,22.912,0c7.672,0,16.986,1.254,21.357-1.557c2.957-1.903,4.6-9.07,1.775-12.68
		c-3.01-3.853-17.688-2.447-24.691-2.447c-8.307,0-18.035,0.143-21.575-4.893c-2.751-3.915-2.481-12.508-0.224-16.907
		c-11.759,0-27.092,0-39.816,0c-6.602,0-16.184-1.165-19.13,2.893c-1.807,2.487-1.861,8.352,0,10.678
		c2.574,3.216,9.779,2.669,15.793,2.669c11.985,0,26.909-2.081,31.142,5.785c2.539,4.714,1.523,14.412-1.334,17.571
		c-3.801,4.202-12.755,4.228-21.577,4.228c-12.008,0-25.2,1.349-29.14-5.116c10.535-0.726,26.935,0.874,38.927-0.224
		c1.858-0.17,3.989-0.689,5.339-1.557c2.957-1.901,4.411-9.182,1.557-12.68c-3.247-3.98-15.566-2.505-23.357-2.447
		c-7.433,0.057-17.95-0.002-21.8-3.78c-4.512-4.43-3.69-16.622,0.89-20.243c5.608-4.431,18.54-3.336,27.584-3.336
		c25.41,0,52.51,0.223,76.299,0.223c4.986,0,11.326-0.088,14.682,0C121.771,8.55,121.721,10.505,121.779,12.565z"/>
</g>
</svg>
